<?xml version="1.0" encoding="UTF-8" standalone="no"?>
<svg
   xmlns:dc="http://purl.org/dc/elements/1.1/"
   xmlns:cc="http://creativecommons.org/ns#"
   xmlns:rdf="http://www.w3.org/1999/02/22-rdf-syntax-ns#"
   xmlns:svg="http://www.w3.org/2000/svg"
   xmlns="http://www.w3.org/2000/svg"
   xmlns:sodipodi="http://sodipodi.sourceforge.net/DTD/sodipodi-0.dtd"
   xmlns:inkscape="http://www.inkscape.org/namespaces/inkscape"
   viewBox="0 0 1086.182 1000"
   height="1000"
   width="1086.182"
   xml:space="preserve"
   id="svg2"
   version="1.1"
   inkscape:version="0.91 r13725"
   sodipodi:docname="as_vert_cor.svg"><sodipodi:namedview
     pagecolor="#ffffff"
     bordercolor="#666666"
     borderopacity="1"
     objecttolerance="10"
     gridtolerance="10"
     guidetolerance="10"
     inkscape:pageopacity="0"
     inkscape:pageshadow="2"
     inkscape:window-width="2560"
     inkscape:window-height="1017"
     id="namedview19"
     showgrid="false"
     inkscape:zoom="0.64"
     inkscape:cx="512.20496"
     inkscape:cy="508.90331"
     inkscape:window-x="-8"
     inkscape:window-y="-8"
     inkscape:window-maximized="1"
     inkscape:current-layer="svg2" /><metadata
     id="metadata8"><rdf:RDF><cc:Work
         rdf:about=""><dc:format>image/svg+xml</dc:format><dc:type
           rdf:resource="http://purl.org/dc/dcmitype/StillImage" /><dc:title></dc:title></cc:Work></rdf:RDF></metadata><defs
     id="defs6"><clipPath
       id="clipPath20"
       clipPathUnits="userSpaceOnUse"><path
         id="path18"
         d="m 0,0 510,0 0,469.75 -510,0 z"
         inkscape:connector-curvature="0" /></clipPath></defs><g
     id="g3392"
     transform="matrix(1.7133115,0,0,1.7133115,-12.733079,-15.888019)"><path
       inkscape:connector-curvature="0"
       d="m 7.4318643,326.25651 633.9664557,0 0,-316.9832327 -633.9664557,0 z"
       style="fill:#ffffff;fill-opacity:1;fill-rule:nonzero;stroke:none"
       id="path22" /><path
       inkscape:connector-curvature="0"
       d="m 95.479614,523.89698 0,-109.5931 40.317556,0 0,106.57419 c 0,27.72332 12.84249,40.56084 35.51442,40.56084 23.1801,0 34.77016,-13.3472 34.77016,-41.81303 l 0,-105.322 40.56021,0 0,107.83608 c 0,48.61771 -28.97513,70.79835 -76.08333,70.79835 -45.09398,0 -75.079016,-20.40908 -75.079016,-69.04133"
       style="fill:#133e79;fill-opacity:1;fill-rule:nonzero;stroke:none"
       id="path24" /><path
       inkscape:connector-curvature="0"
       d="m 366.09232,590.41448 0,-79.11236 c 0,-18.88988 -5.29057,-28.46596 -20.90385,-28.46596 -16.12891,0 -25.19047,13.85687 -25.19047,36.0277 l 0,71.55062 -39.55503,0 0,-103.79254 c 0,-13.85687 -0.5057,-23.68531 -0.75296,-31.25711 l 37.78447,0 c 0.50943,4.80599 1.7569,20.16679 2.02404,27.71399 6.80021,-21.40457 23.67586,-30.2226 43.07503,-30.2226 34.01348,0 43.58447,22.91806 43.58447,48.1176 l 0,89.44066 -40.0657,0"
       style="fill:#133e79;fill-opacity:1;fill-rule:nonzero;stroke:none"
       id="path26" /><path
       inkscape:connector-curvature="0"
       d="m 501.93251,514.06855 -22.42342,0 0,47.1277 23.6858,0 c 18.65243,0 31.24146,-6.04266 31.24146,-24.19473 0,-17.88531 -14.60312,-22.93297 -32.50384,-22.93297 z m -4.78984,-71.03182 -17.63358,0 0,41.06132 17.90072,0 c 19.14694,0 27.44685,-6.30955 27.44685,-20.65199 0,-14.87523 -8.80933,-20.40933 -27.71399,-20.40933 z m 9.82818,147.37775 -67.0081,0 0,-176.1106 60.96582,0 c 40.81244,0 64.23608,14.87647 64.23608,44.60456 0,19.89928 -10.58611,33.00382 -31.74715,38.02725 26.96103,3.543 41.82756,19.65675 41.82756,43.09927 0,35.50348 -28.71793,50.37952 -68.27421,50.37952"
       style="fill:#133e79;fill-opacity:1;fill-rule:nonzero;stroke:none"
       id="path28" /><path
       inkscape:connector-curvature="0"
       d="m 543.63956,124.52025 c -31.99939,23.06828 -66.98325,43.06013 -104.68075,59.36796 -18.62882,8.05762 -38.70764,13.629 -59.85377,16.27428 -15.03676,1.87867 -30.34934,2.82421 -45.88061,2.82421 l 0,123.26981 308.17389,0 0,-272.32649 -97.75007,70.60017 -0.009,-0.01"
       style="fill:#008940;fill-opacity:1;fill-rule:nonzero;stroke:none"
       id="path30" /><path
       inkscape:connector-curvature="0"
       d="m 105.18666,124.52025 c 32.00957,23.06828 66.98846,43.06013 104.69093,59.36796 18.63255,8.05762 38.70143,13.629 59.8575,16.27428 15.02681,1.87867 30.3394,2.82421 45.88061,2.82421 l 0,123.26981 -308.1838357,0 0,-272.32649 97.7499457,70.60017 0.005,-0.01"
       style="fill:#008940;fill-opacity:1;fill-rule:nonzero;stroke:none"
       id="path32" /><path
       inkscape:connector-curvature="0"
       d="m 333.22443,9.2732773 0,176.0997227 c 14.78825,0 29.37894,-0.912 43.69132,-2.6838 l 0,0 c 19.4526,-2.43655 37.9112,-7.5569 55.04405,-14.96345 36.51712,-15.79343 70.37528,-35.14415 101.36575,-57.48929 l 0,0.005 108.07277,-78.050214 0,-22.9179387 -308.17389,0"
       style="fill:#133e79;fill-opacity:1;fill-rule:nonzero;stroke:none"
       id="path34" /><path
       inkscape:connector-curvature="0"
       d="m 315.6157,9.2732773 0,176.0997227 c -14.80316,0 -29.3777,-0.912 -43.69132,-2.6838 l -0.005,0 c -19.45757,-2.43655 -37.9199,-7.5569 -55.05275,-14.96345 -36.50842,-15.79343 -70.36658,-35.14415 -101.36625,-57.48929 l 0,0.005 -108.0685457,-78.050214 0,-22.9179387 308.1838357,0"
       style="fill:#133e79;fill-opacity:1;fill-rule:nonzero;stroke:none"
       id="path36" /></g></svg>